<svg id="Layer_1" data-name="Layer 1" xmlns="http://www.w3.org/2000/svg" viewBox="0 0 456.7 208.8"><title>imperialcollegeunion</title><path d="M115.4,75.9a4.1,4.1,0,0,1-8.2,0h0V37.1a4.1,4.1,0,0,1,8.2,0Z" style="fill:#fff"/><path d="M157.7,50.2c0-6.6-3.9-10.6-10.6-10.6s-10.5,4-10.5,10.6V75.9a4.1,4.1,0,0,1-8.2,0h0V37.1a4.1,4.1,0,0,1,8.2,0v1.4l.2.2c1.9-2.3,5-5.6,12.4-5.6,4.8,0,9.8,1.9,13.5,7.8,3.6-4.8,8-7.8,15.1-7.8,7.6,0,17.1,4.5,17.1,17.4V76a4.1,4.1,0,1,1-8.2,0h0V50.2c0-6.6-3.9-10.6-10.6-10.6s-10.5,4-10.5,10.6V75.9a4.1,4.1,0,0,1-8.2,0h0l.3-25.7Z" style="fill:#fff"/><path d="M208.4,37.1a4.1,4.1,0,1,1,8.2,0v2.2h.2c2.3-4.1,6.7-6.3,13.2-6.3,13.3,0,21,11.3,21,23.5S243.3,80,230,80a16.54,16.54,0,0,1-13.2-6.2h-.2V90.5a4.1,4.1,0,0,1-8.2,0Zm20.9,36.3c10,0,13.5-9.2,13.5-16.9s-3.5-16.9-13.5-16.9-13.5,9.2-13.5,16.9,3.5,16.9,13.5,16.9Z" style="fill:#fff"/><path d="M267.1,59.4c0,7.9,5.4,14,14.5,14,10.9,0,13.6-6.2,16.7-6.2a3.12,3.12,0,0,1,3,3.2v.2c0,3.7-10.1,9.4-19.7,9.4C265.8,80,259,68.7,259,56.5c0-12.4,8.3-23.5,22.1-23.5,13.4,0,21.2,11.3,21.2,22.4,0,2.7-1,4-4.5,4Zm27-5.7c0-6.6-4.1-14.2-13.1-14.2-10.1-.3-13.7,7.2-14,14.2Z" style="fill:#fff"/><path d="M312.4,37.1a4.1,4.1,0,0,1,8.2,0V41h.2c1.9-3.5,6.4-7.9,11.1-7.9,2.9,0,4.5,1.7,4.5,3.9s-1.7,3.5-5.1,4.1c-4.8.8-10.7,4.1-10.7,13V75.9a4.1,4.1,0,0,1-8.2,0h0Z" style="fill:#fff"/><path d="M348,17.5a4.81,4.81,0,0,1,5,4.6h0a5,5,0,1,1-10,0,4.81,4.81,0,0,1,5-4.6Zm4,58.4a4.1,4.1,0,0,1-8.2,0h0V37.1a4.1,4.1,0,0,1,8.2,0Z" style="fill:#fff"/><path d="M405.9,76.3a3.67,3.67,0,0,1-3.6,3.7h-.2a3.59,3.59,0,0,1-3.8-3.4V73.1h-.2A16.11,16.11,0,0,1,384.6,80C370.8,80,363,68.7,363,56.5S370.8,33,384.7,33c5.7,0,9.6,2.2,13.5,6.1h.2V36.7a3.53,3.53,0,0,1,3.5-3.7h.3a3.67,3.67,0,0,1,3.8,3.5v.2l-.1,39.6Zm-21.2-2.9c10,0,13.5-9.2,13.5-16.9s-3.5-16.9-13.5-16.9-13.5,9.2-13.5,16.9,3.5,16.9,13.5,16.9Z" style="fill:#fff"/><path d="M427.1,75.9a4.1,4.1,0,0,1-8.2,0h0v-59a4.1,4.1,0,0,1,8.2,0Z" style="fill:#fff"/><path d="M194,101.6c8.3,0,13.3,2.7,13.3,5.8a3.31,3.31,0,0,1-3.3,3.2c-3.1,0-4.4-2.4-9.9-2.4-10.1,0-14.1,9.2-14.1,16.9s4,16.9,14.1,16.9c5.8,0,7.2-2.6,9.8-2.6a3,3,0,0,1,3.2,2.8v.4c0,2.9-4.5,6-13,6-15,0-22.2-11.3-22.2-23.5S179,101.6,194,101.6Z" style="fill:#fff"/><path d="M236.9,101.6c13.9,0,21.7,11.3,21.7,23.5s-7.8,23.5-21.7,23.5-21.7-11.3-21.7-23.5S223,101.6,236.9,101.6Zm0,40.4c10,0,13.5-9.1,13.5-16.9s-3.5-16.9-13.5-16.9-13.5,9.2-13.5,16.9,3.5,16.9,13.5,16.9Z" style="fill:#fff"/><path d="M277.7,144.5a4.1,4.1,0,1,1-8.2,0v-52a4.1,4.1,0,1,1,8.2,0v52Z" style="fill:#fff"/><path d="M298.9,144.5a4.1,4.1,0,1,1-8.2,0v-52a4.1,4.1,0,1,1,8.2,0v52Z" style="fill:#fff"/><path d="M317.2,128c0,7.9,5.4,14,14.5,14,10.8,0,13.6-6.2,16.7-6.2a3.12,3.12,0,0,1,3,3.2v.2c0,3.7-10.1,9.4-19.7,9.4-15.8,0-22.6-11.3-22.6-23.5,0-12.4,8.3-23.5,22.1-23.5,13.4,0,21.2,11.3,21.2,22.4,0,2.7-1,4.1-4.5,4.1l-30.7-.1Zm27-5.7c0-6.6-4.1-14.2-13.1-14.2-10.1-.3-13.7,7.2-14,14.2Z" style="fill:#fff"/><path d="M402.9,144.7c0,13.6-8.9,21.9-22.2,21.9-8.4,0-18.9-4.5-18.9-8.4a3.26,3.26,0,0,1,3-3.5h.4c3.7,0,7.3,5.4,16.1,5.4,10.4,0,13.4-7.6,13.4-14.2v-4h-.2a14.18,14.18,0,0,1-12.6,6.6c-13.9,0-21.7-11.3-21.7-23.5s7.8-23.5,21.7-23.5a17.17,17.17,0,0,1,12.5,5.8h.2v-2.1c0-2.7,2.1-3.7,4.4-3.7a3.67,3.67,0,0,1,3.8,3.5v.2l.1,39.5ZM382,142c10,0,13.5-9.1,13.5-16.9S392,108.2,382,108.2s-13.5,9.2-13.5,16.9S372,142,382,142Z" style="fill:#fff"/><path d="M421.5,128c0,7.9,5.4,14,14.5,14,10.8,0,13.6-6.2,16.7-6.2a3.18,3.18,0,0,1,3,3.2v.1c0,3.7-10.1,9.4-19.7,9.4-15.8,0-22.6-11.3-22.6-23.5,0-12.4,8.3-23.5,22.1-23.5,13.5,0,21.2,11.3,21.2,22.4,0,2.7-1,4.1-4.5,4.1Zm27-5.7c0-6.6-4.1-14.2-13.1-14.2-10.1-.3-13.7,7.2-14,14.2Z" style="fill:#fff"/><path d="M106.4,169c0-4.1,2.6-6.8,6.3-6.8s6.3,2.7,6.3,6.8v21.8c0,5.1,4,7.9,8.2,7.9s8.2-2.8,8.2-7.9V169c0-4.1,2.6-6.8,6.4-6.8s6.3,2.7,6.3,6.8v22c0,10.8-7.5,17.8-20.9,17.8s-20.9-6.9-20.9-17.8C106.4,191,106.4,169,106.4,169Z" style="fill:#fff"/><path d="M155.8,169c0-4.1,2.6-6.8,6.3-6.8,3.3,0,5.4,1.7,5.8,4.5,2.5-3.3,6.2-5,12.2-5,9.9,0,17.4,6.1,17.4,16.4v23.4c0,4.1-2.6,6.8-6.3,6.8s-6.3-2.7-6.3-6.8V180.2c0-5.7-3.7-8.4-8.3-8.4-5.2,0-8.1,3.6-8.1,8.4v21.2c0,4.1-2.6,6.8-6.3,6.8s-6.3-2.7-6.3-6.8l-.1-32.4Z" style="fill:#fff"/><path d="M205.1,169c0-4.1,2.6-6.8,6.3-6.8s6.3,2.7,6.3,6.8v32.5c0,4.1-2.6,6.8-6.3,6.8s-6.3-2.7-6.3-6.8Z" style="fill:#fff"/><path d="M268.9,185.3c0,12.7-9.1,23.4-22.7,23.4s-22.7-10.8-22.7-23.4c0-12.4,9.3-23.6,22.7-23.6S268.9,173,268.9,185.3Zm-32.8,0c0,5.8,3.2,12.3,10,12.3s10-6.4,10-12.3-3.1-12.4-10-12.4-10,6.6-10,12.4Z" style="fill:#fff"/><path d="M274.7,169c0-4.1,2.6-6.8,6.3-6.8,3.3,0,5.4,1.7,5.8,4.5,2.5-3.3,6.2-5,12.2-5,9.9,0,17.4,6.1,17.4,16.4v23.4c0,4.1-2.6,6.8-6.3,6.8s-6.3-2.7-6.3-6.8V180.2c0-5.7-3.7-8.4-8.3-8.4-5.2,0-8.1,3.6-8.1,8.4v21.2c0,4.1-2.6,6.8-6.3,6.8s-6.3-2.7-6.3-6.8l-.1-32.4Z" style="fill:#fff"/><path d="M77.3,135.3A17.3,17.3,0,1,1,60,118h0A17.24,17.24,0,0,1,77.3,135.3Z" style="fill:#fff"/><path d="M137,120.9a22.5,22.5,0,1,1-22.5-22.5A22.53,22.53,0,0,1,137,120.9Z" style="fill:#fff"/><path d="M117.7,19.3a6.5,6.5,0,1,1-6.5-6.5,6.49,6.49,0,0,1,6.5,6.5Z" style="fill:#fff"/><circle cx="55.8" cy="8.6" r="8.6" style="fill:#fff"/><path d="M24.2,45.2A11.3,11.3,0,1,1,12.9,33.9h0A11.35,11.35,0,0,1,24.2,45.2Z" style="fill:#fff"/><path d="M29.5,101.6A14.75,14.75,0,1,1,14.7,86.8h0A14.77,14.77,0,0,1,29.5,101.6Z" style="fill:#fff"/></svg>