<svg id="Layer_1" data-name="Layer 1" xmlns="http://www.w3.org/2000/svg" viewBox="0 0 244 157.6"><title>imperialcollegechrsitianunion_white</title><g id="Page-1"><g id="Artboard-2"><g id="Oval-1-Copy-_-Oval-1-Copy-_-Shape" data-name="Oval-1-Copy- -Oval-1-Copy- -Shape"><path id="Oval-1-Copy" d="M53.6,112.8a19.82,19.82,0,0,0-10.8,17.4c0,11,9.4,19.9,21.1,19.9S85,141.2,85,130.2a19.77,19.77,0,0,0-11.1-17.5v17.5H53.6V112.8Z" style="fill:#fff"/><path id="Oval-1-Copy-2" d="M37.3,53A19.82,19.82,0,0,0,19.9,42.2C8.9,42.2,0,51.6,0,63.3S8.9,84.4,19.9,84.4A19.77,19.77,0,0,0,37.4,73.3H19.9V53Z" style="fill:#fff"/><path id="Shape" d="M74.1,37.3A19.82,19.82,0,0,0,84.9,19.9C84.9,8.9,75.5,0,63.8,0S42.7,8.9,42.7,19.9A19.77,19.77,0,0,0,53.8,37.4V19.9H74.1V37.3Z" style="fill:#fff"/></g><path id="imperial-" d="M112.3,31.8v-4h-4.8v4Zm-4.8,2.7V52.1h4.8V34.5Zm8.8,0V52.1h4.8V41.9a4,4,0,0,1,.4-2.1,2.73,2.73,0,0,1,.9-1.2,2.38,2.38,0,0,1,1.1-.6,2.92,2.92,0,0,1,.9-.2,2.83,2.83,0,0,1,1.8.4,1.59,1.59,0,0,1,.8,1,3.53,3.53,0,0,1,.3,1.4V52.1h4.8V42.3a8.6,8.6,0,0,1,.1-1.6,3.36,3.36,0,0,1,.5-1.4,4.74,4.74,0,0,1,1-1,2.93,2.93,0,0,1,1.6-.4,4.53,4.53,0,0,1,1.6.3,2,2,0,0,1,.9.9,5.73,5.73,0,0,1,.4,1.4c0,.5.1,1.1.1,1.7v10h4.8V40.3a9.29,9.29,0,0,0-.5-2.9,6.25,6.25,0,0,0-1.3-2,5.64,5.64,0,0,0-2-1.1,11.53,11.53,0,0,0-2.6-.3,6.2,6.2,0,0,0-3.2.9,8,8,0,0,0-2.1,2,4.71,4.71,0,0,0-2.1-2.3,7.65,7.65,0,0,0-3-.6,6.7,6.7,0,0,0-3.1.7,6.59,6.59,0,0,0-2.3,2.1h-.1V34.4l-4.5.1Zm39.5,14.4a4.55,4.55,0,0,1-2-.5,3.74,3.74,0,0,1-1.3-1.2,4,4,0,0,1-.7-1.8,14.92,14.92,0,0,1-.2-2.1,14.92,14.92,0,0,1,.2-2.1,4,4,0,0,1,.7-1.8,8,8,0,0,1,1.3-1.3,4.25,4.25,0,0,1,4,0,4,4,0,0,1,1.3,1.3,4,4,0,0,1,.7,1.8,14.92,14.92,0,0,1,.2,2.1,14.92,14.92,0,0,1-.2,2.1,4,4,0,0,1-.7,1.8,3.74,3.74,0,0,1-1.3,1.2,5.34,5.34,0,0,1-2,.5Zm-8.9-14.4V58.2h4.8V49.9h.1a5.5,5.5,0,0,0,2.3,2,6.3,6.3,0,0,0,3,.7,8,8,0,0,0,3.4-.7,7.78,7.78,0,0,0,2.4-2,11.08,11.08,0,0,0,1.4-2.9,12.7,12.7,0,0,0,.5-3.4,14.87,14.87,0,0,0-.5-3.6,8.47,8.47,0,0,0-1.5-3,7.21,7.21,0,0,0-2.5-2.1,9,9,0,0,0-3.6-.8,7.65,7.65,0,0,0-3,.6,4.49,4.49,0,0,0-2.2,2.1h-.1V34.6l-4.5-.1Zm32.6,6.9h-7.8a5,5,0,0,1,.2-1.2,3.38,3.38,0,0,1,.6-1.2,4,4,0,0,1,1.2-1,4.06,4.06,0,0,1,1.9-.4,3.07,3.07,0,0,1,2.6,1,6,6,0,0,1,1.3,2.8Zm-7.8,3.1h12.7a12.86,12.86,0,0,0-.3-3.9,9.88,9.88,0,0,0-1.5-3.3,6.67,6.67,0,0,0-2.7-2.3,8.6,8.6,0,0,0-3.9-.9,9.37,9.37,0,0,0-3.7.7,8,8,0,0,0-2.8,2,7.89,7.89,0,0,0-1.8,2.9,11.71,11.71,0,0,0,0,7.4,7.89,7.89,0,0,0,1.8,2.9,10.65,10.65,0,0,0,2.8,1.9,9.37,9.37,0,0,0,3.7.7,9.13,9.13,0,0,0,5.1-1.4,8.38,8.38,0,0,0,3.1-4.5H180a3.18,3.18,0,0,1-1.3,1.5,4.51,4.51,0,0,1-2.5.7,4,4,0,0,1-3.1-1.1c-1-.6-1.3-1.8-1.4-3.3Zm15.5-10V52.1H192V44.2a16.35,16.35,0,0,1,.2-2.2,4.17,4.17,0,0,1,.8-1.8,4.43,4.43,0,0,1,1.5-1.2,5.38,5.38,0,0,1,2.2-.4,2.77,2.77,0,0,1,.9.1c.3,0,.6.1.8.1V34.3a4.25,4.25,0,0,0-1.1-.2,5.66,5.66,0,0,0-1.8.3,6.11,6.11,0,0,0-1.4.7,4.89,4.89,0,0,0-1.3,1.2,6,6,0,0,0-.9,1.5h-.1V34.5Zm18.2-2.7v-4h-4.8v4Zm-4.8,2.7V52.1h4.8V34.5Zm8.4,5.4a6.6,6.6,0,0,1,.9-2.8,8.13,8.13,0,0,1,1.9-1.8,8.25,8.25,0,0,1,2.6-1,14.28,14.28,0,0,1,2.9-.3,24.52,24.52,0,0,1,2.7.2,10.27,10.27,0,0,1,2.5.7,6.55,6.55,0,0,1,1.8,1.5A4.1,4.1,0,0,1,225,39v9.1a17.7,17.7,0,0,0,.1,2.3,3,3,0,0,0,.5,1.6h-4.9a2.35,2.35,0,0,1-.2-.8c0-.3-.1-.6-.1-.9a7.12,7.12,0,0,1-2.7,1.8,11.27,11.27,0,0,1-3.2.5,8.52,8.52,0,0,1-2.3-.3,4.35,4.35,0,0,1-1.9-1,5.09,5.09,0,0,1-1.3-1.6,5.93,5.93,0,0,1-.5-2.3,7,7,0,0,1,.5-2.5,4,4,0,0,1,1.4-1.5,6.63,6.63,0,0,1,1.9-.9c.7-.2,1.4-.3,2.2-.5l2.1-.3c.7-.1,1.3-.2,1.9-.3a3.1,3.1,0,0,0,1.3-.6,1.19,1.19,0,0,0,.4-1.1,2.66,2.66,0,0,0-.3-1.2,2.34,2.34,0,0,0-.7-.7,1.69,1.69,0,0,0-1-.3,4.87,4.87,0,0,0-1.2-.1,3.34,3.34,0,0,0-2.2.6,3,3,0,0,0-1,2l-4.8-.1Zm11.1,3.6a2,2,0,0,1-.8.4c-.3.1-.6.2-1,.3s-.7.1-1.1.2a5,5,0,0,0-1.2.2l-1.1.3a2.62,2.62,0,0,0-.9.5,1.34,1.34,0,0,0-.6.7,2,2,0,0,0-.2,1.1,4.25,4.25,0,0,0,.2,1.1,4.35,4.35,0,0,0,.6.7,3,3,0,0,0,1,.4,4.1,4.1,0,0,0,1.1.1,4.19,4.19,0,0,0,2.2-.5,4.26,4.26,0,0,0,1.2-1.1,6.94,6.94,0,0,0,.5-1.3,4.1,4.1,0,0,0,.1-1.1Zm8.7-15.7V52.1h4.8V27.8ZM119.3,75.7H124a6,6,0,0,0-.8-2.9,7.56,7.56,0,0,0-1.9-2.1,6.82,6.82,0,0,0-2.6-1.2,10.32,10.32,0,0,0-3-.4,9.86,9.86,0,0,0-3.8.7,6.9,6.9,0,0,0-2.8,2,9.23,9.23,0,0,0-1.8,3,12.09,12.09,0,0,0-.6,3.8,11.33,11.33,0,0,0,.6,3.6,7.5,7.5,0,0,0,1.8,2.8,10.65,10.65,0,0,0,2.8,1.9,9.8,9.8,0,0,0,9.3-1.1,7.62,7.62,0,0,0,2.7-5.3h-4.7a4.2,4.2,0,0,1-1.2,2.6,3.78,3.78,0,0,1-2.7,1,4.14,4.14,0,0,1-1.9-.5,3.74,3.74,0,0,1-1.2-1.3,13.36,13.36,0,0,1-.7-1.8,12.25,12.25,0,0,1-.2-1.9,13.55,13.55,0,0,1,.2-2,4,4,0,0,1,.7-1.8,4.36,4.36,0,0,1,1.3-1.4,2.62,2.62,0,0,1,1.9-.5c2.4-.2,3.6.8,3.9,2.8Zm11.8,2.6a14.92,14.92,0,0,1,.2-2.1,4,4,0,0,1,.7-1.8,8,8,0,0,1,1.3-1.3,4.55,4.55,0,0,1,2-.5,5.37,5.37,0,0,1,2.1.5,4,4,0,0,1,1.3,1.3,4,4,0,0,1,.7,1.8,9.91,9.91,0,0,1,0,4.2,4,4,0,0,1-.7,1.8,4,4,0,0,1-1.3,1.3,5,5,0,0,1-2.1.5,3.51,3.51,0,0,1-2-.5,4,4,0,0,1-1.3-1.3,4,4,0,0,1-.7-1.8,14.92,14.92,0,0,1-.2-2.1Zm-4.8,0a12.09,12.09,0,0,0,.6,3.8,7.89,7.89,0,0,0,1.8,2.9,8.12,8.12,0,0,0,2.9,1.9,11.48,11.48,0,0,0,3.7.6,12.09,12.09,0,0,0,3.8-.6A7,7,0,0,0,142,85a7.89,7.89,0,0,0,1.8-2.9,12.33,12.33,0,0,0,0-7.6,7.89,7.89,0,0,0-1.8-2.9,9.72,9.72,0,0,0-2.9-1.9,9.86,9.86,0,0,0-3.8-.7,9.37,9.37,0,0,0-3.7.7,9.72,9.72,0,0,0-2.9,1.9,7.89,7.89,0,0,0-1.8,2.9,8.22,8.22,0,0,0-.6,3.8Zm21.5-15.5V87.1h4.8V62.8Zm8.8,0V87.1h4.8V62.8ZM177,76.4h-7.9a5,5,0,0,1,.2-1.2,2.73,2.73,0,0,1,.6-1.2,4,4,0,0,1,1.2-1,4.06,4.06,0,0,1,1.9-.4,3.19,3.19,0,0,1,2.6,1,4.7,4.7,0,0,1,1.4,2.8Zm-7.8,3.1h12.7a12.86,12.86,0,0,0-.3-3.9,9.88,9.88,0,0,0-1.5-3.3,6.67,6.67,0,0,0-2.7-2.3,8.91,8.91,0,0,0-3.9-.9,9.37,9.37,0,0,0-3.7.7,8,8,0,0,0-2.8,2,7.89,7.89,0,0,0-1.8,2.9,11.71,11.71,0,0,0,0,7.4A7.89,7.89,0,0,0,167,85a10.65,10.65,0,0,0,2.8,1.9,9.37,9.37,0,0,0,3.7.7,9.13,9.13,0,0,0,5.1-1.4,8.38,8.38,0,0,0,3.1-4.5h-4.2a3.18,3.18,0,0,1-1.3,1.5,4.3,4.3,0,0,1-2.5.7,4,4,0,0,1-3.1-1.1c-1-.6-1.4-1.8-1.4-3.3ZM192.9,83a4.14,4.14,0,0,1-1.9-.5,3.45,3.45,0,0,1-1.2-1.2,4.92,4.92,0,0,1-.6-1.7,9.13,9.13,0,0,1,0-3.8,4.59,4.59,0,0,1,.7-1.6,3.18,3.18,0,0,1,1.2-1.1,3.92,3.92,0,0,1,1.8-.4,4.48,4.48,0,0,1,2,.4,4.89,4.89,0,0,1,1.3,1.2,8.65,8.65,0,0,1,.7,1.7,14.92,14.92,0,0,1,.2,2.1,5.66,5.66,0,0,1-.3,1.8,2.75,2.75,0,0,1-.8,1.5,4.31,4.31,0,0,1-3.1,1.6Zm8.7,3V69.5H197v2.3h-.1a5.81,5.81,0,0,0-2.2-2.2,7.65,7.65,0,0,0-3-.6,7.11,7.11,0,0,0-3.2.7,8.76,8.76,0,0,0-2.4,1.9,6.19,6.19,0,0,0-1.4,2.8,12.57,12.57,0,0,0-.5,3.3,13.17,13.17,0,0,0,.4,3.4,7.19,7.19,0,0,0,1.3,2.8,7.1,7.1,0,0,0,2.3,1.9,8,8,0,0,0,3.4.7,6.3,6.3,0,0,0,3-.7,3.79,3.79,0,0,0,2.2-2.1h.1V86a5.61,5.61,0,0,1-.9,3.1,3.43,3.43,0,0,1-3,1.2,5.93,5.93,0,0,1-2.3-.5,2.59,2.59,0,0,1-1.3-1.9h-4.7a5,5,0,0,0,.8,2.6,7.69,7.69,0,0,0,1.8,1.8,6.43,6.43,0,0,0,2.4,1,11.53,11.53,0,0,0,2.6.3,13.09,13.09,0,0,0,4.8-.8,6.9,6.9,0,0,0,2.8-2,5.82,5.82,0,0,0,1.2-2.5,5.93,5.93,0,0,0,.5-2.3Zm15.7-9.6h-7.9a5,5,0,0,1,.2-1.2,2.73,2.73,0,0,1,.6-1.2,4,4,0,0,1,1.2-1,4.06,4.06,0,0,1,1.9-.4,3.07,3.07,0,0,1,2.6,1,4.7,4.7,0,0,1,1.4,2.8Zm-7.8,3.1h12.7a12.86,12.86,0,0,0-.3-3.9,9.88,9.88,0,0,0-1.5-3.3,6.67,6.67,0,0,0-2.7-2.3,8.6,8.6,0,0,0-3.9-.9,9.37,9.37,0,0,0-3.7.7,8,8,0,0,0-2.8,2,7.89,7.89,0,0,0-1.8,2.9,11.71,11.71,0,0,0,0,7.4,7.89,7.89,0,0,0,1.8,2.9,10.65,10.65,0,0,0,2.8,1.9,11.56,11.56,0,0,0,3.7.7,9.13,9.13,0,0,0,5.1-1.4,8.38,8.38,0,0,0,3.1-4.5h-4.2a3.18,3.18,0,0,1-1.3,1.5,4.51,4.51,0,0,1-2.5.7,4,4,0,0,1-3.1-1.1c-1-.6-1.4-1.8-1.4-3.3Zm-90.2,31.2H124a6,6,0,0,0-.8-2.9,7.56,7.56,0,0,0-1.9-2.1,6.82,6.82,0,0,0-2.6-1.2,10.32,10.32,0,0,0-3-.4,9.86,9.86,0,0,0-3.8.7,6.9,6.9,0,0,0-2.8,2,9.23,9.23,0,0,0-1.8,3,12.09,12.09,0,0,0-.6,3.8,11.33,11.33,0,0,0,.6,3.6,7.5,7.5,0,0,0,1.8,2.8,10.65,10.65,0,0,0,2.8,1.9,9.8,9.8,0,0,0,9.3-1.1,7.62,7.62,0,0,0,2.7-5.3h-4.7a4.2,4.2,0,0,1-1.2,2.6,3.78,3.78,0,0,1-2.7,1,4.14,4.14,0,0,1-1.9-.5,3.74,3.74,0,0,1-1.2-1.3,13.36,13.36,0,0,1-.7-1.8,8.56,8.56,0,0,1,0-3.9,4,4,0,0,1,.7-1.8,4.36,4.36,0,0,1,1.3-1.4,2.62,2.62,0,0,1,1.9-.5c2.4-.2,3.6.8,3.9,2.8Zm7.6-12.9v24.3h4.8v-9.2a6.63,6.63,0,0,1,.9-3.9,3.25,3.25,0,0,1,2.9-1.2,2.54,2.54,0,0,1,2.4,1.1,7.11,7.11,0,0,1,.7,3.2V122h4.8V111.2a15.26,15.26,0,0,0-.3-3,5.23,5.23,0,0,0-1-2.3,4.26,4.26,0,0,0-2-1.5,7,7,0,0,0-3.2-.5,5.55,5.55,0,0,0-2.8.7,5.44,5.44,0,0,0-2.3,2.2h-.1V97.7h-4.8v.1Zm20.1,6.7v17.6h4.8v-7.9a16.35,16.35,0,0,1,.2-2.2,4.17,4.17,0,0,1,.8-1.8,4.43,4.43,0,0,1,1.5-1.2,5.38,5.38,0,0,1,2.2-.4,2.77,2.77,0,0,1,.9.1,2.2,2.2,0,0,0,.8.1v-4.5a4.25,4.25,0,0,0-1.1-.2,5.66,5.66,0,0,0-1.8.3,4.81,4.81,0,0,0-1.6.8,4.89,4.89,0,0,0-1.3,1.2,6,6,0,0,0-.9,1.5h-.1v-3.3l-4.4-.1Zm18.2-2.7v-4h-4.8v4Zm-4.8,2.7v17.6h4.8V104.5Zm12.4,11.9h-4.6a5.1,5.1,0,0,0,.8,2.9,5.75,5.75,0,0,0,1.9,1.9,8.25,8.25,0,0,0,2.6,1,15.26,15.26,0,0,0,3,.3,14.28,14.28,0,0,0,2.9-.3,8.25,8.25,0,0,0,2.6-1,5.44,5.44,0,0,0,2.5-4.8,5.37,5.37,0,0,0-.5-2.1,3,3,0,0,0-1.3-1.4,5.08,5.08,0,0,0-1.8-.9l-2.1-.6a14.16,14.16,0,0,0-2-.4,12.09,12.09,0,0,1-1.8-.5,2.92,2.92,0,0,1-1.2-.7,1.61,1.61,0,0,1-.5-1.1,1.4,1.4,0,0,1,.3-.9,1.79,1.79,0,0,1,.7-.5,2.92,2.92,0,0,1,.9-.2c.3,0,.6-.1.9-.1a5.45,5.45,0,0,1,2.2.5,2.14,2.14,0,0,1,1.1,1.9H184a6.49,6.49,0,0,0-.8-2.7,4.9,4.9,0,0,0-1.8-1.7,11.72,11.72,0,0,0-2.4-.9,13.22,13.22,0,0,0-5.6,0,11.72,11.72,0,0,0-2.4.9,5.81,5.81,0,0,0-1.8,1.7,5.1,5.1,0,0,0-.2,4.8,2.74,2.74,0,0,0,1.3,1.3,14.17,14.17,0,0,0,1.8.8l2.1.6a26.19,26.19,0,0,1,4,1.1,1.62,1.62,0,0,1,1.4,1.6,2,2,0,0,1-.3,1.1,2.7,2.7,0,0,1-.8.7,3,3,0,0,1-1,.4,4.1,4.1,0,0,1-1.1.1,6.75,6.75,0,0,1-1.4-.2,6.12,6.12,0,0,1-1.2-.5,2.36,2.36,0,0,1-.8-.9,2.54,2.54,0,0,1-.2-1.2Zm20.6-11.9V99.2h-4.8v5.3h-2.9v3.2h2.9v10.4a4,4,0,0,0,.4,2.1,3.74,3.74,0,0,0,1.2,1.3,6.36,6.36,0,0,0,1.8.6,14.92,14.92,0,0,0,2.1.2h1.5c.5,0,1-.1,1.4-.1v-3.7c-.2,0-.5.1-.7.1h-.8a1.88,1.88,0,0,1-1.6-.4,2.28,2.28,0,0,1-.4-1.6v-8.7H197v-3.2h-3.6v-.2Zm10.8-2.7v-4h-4.8v4Zm-4.8,2.7v17.6h4.8V104.5Zm8.4,5.4a6.6,6.6,0,0,1,.9-2.8,8.13,8.13,0,0,1,1.9-1.8,8.25,8.25,0,0,1,2.6-1,14.28,14.28,0,0,1,2.9-.3,24.52,24.52,0,0,1,2.7.2,10.27,10.27,0,0,1,2.5.7,6.55,6.55,0,0,1,1.8,1.5,4.1,4.1,0,0,1,.7,2.6v9.1a17.7,17.7,0,0,0,.1,2.3,3,3,0,0,0,.5,1.6h-4.9a2.35,2.35,0,0,1-.2-.8,2.77,2.77,0,0,1-.1-.9,9.48,9.48,0,0,1-2.7,1.7,11.27,11.27,0,0,1-3.2.5,8.52,8.52,0,0,1-2.3-.3,4.35,4.35,0,0,1-1.9-1,5.09,5.09,0,0,1-1.3-1.6,5.93,5.93,0,0,1-.5-2.3,7,7,0,0,1,.5-2.5,4,4,0,0,1,1.4-1.5,6.63,6.63,0,0,1,1.9-.9c.7-.2,1.4-.3,2.2-.5l2.1-.3c.7-.1,1.3-.2,1.9-.3a3.1,3.1,0,0,0,1.3-.6,1.19,1.19,0,0,0,.4-1.1,2.66,2.66,0,0,0-.3-1.2,2.34,2.34,0,0,0-.7-.7,1.69,1.69,0,0,0-1-.3,4.87,4.87,0,0,0-1.2-.1,3.34,3.34,0,0,0-2.2.6,3,3,0,0,0-1,2Zm11.2,3.6a2,2,0,0,1-.8.4c-.3.1-.6.2-1,.3s-.7.1-1.1.2a5,5,0,0,0-1.2.2l-1.1.3a2.62,2.62,0,0,0-.9.5,1.34,1.34,0,0,0-.6.7,2,2,0,0,0-.2,1.1,4.25,4.25,0,0,0,.2,1.1,4.35,4.35,0,0,0,.6.7,3,3,0,0,0,1,.4,4.1,4.1,0,0,0,1.1.1,4.19,4.19,0,0,0,2.2-.5,4.26,4.26,0,0,0,1.2-1.1,3,3,0,0,0,.5-1.3,4.1,4.1,0,0,0,.1-1.1Zm8.5-9v17.6h4.8v-9.2a6.63,6.63,0,0,1,.9-3.9,3.25,3.25,0,0,1,2.9-1.2,2.54,2.54,0,0,1,2.4,1.1,7.11,7.11,0,0,1,.7,3.2V122H244V111.2a15.26,15.26,0,0,0-.3-3,5.23,5.23,0,0,0-1-2.3,4.26,4.26,0,0,0-2-1.5,7,7,0,0,0-3.2-.5,6.3,6.3,0,0,0-3,.7,5.65,5.65,0,0,0-2.4,2.2H232v-2.4h-4.5v.1ZM123.8,157.1V139.5H119v9.2a6.63,6.63,0,0,1-.9,3.9,3.25,3.25,0,0,1-2.9,1.2,2.54,2.54,0,0,1-2.4-1.1,6,6,0,0,1-.7-3.2v-9.9h-4.8v10.8a15.26,15.26,0,0,0,.3,3,5.23,5.23,0,0,0,1,2.3,4.07,4.07,0,0,0,2,1.4,8.59,8.59,0,0,0,3.2.5,6.3,6.3,0,0,0,3-.7,5.65,5.65,0,0,0,2.4-2.2h.1v2.4Zm3.7-17.6v17.6h4.8v-9.2a6.63,6.63,0,0,1,.9-3.9,3.25,3.25,0,0,1,2.9-1.2,2.54,2.54,0,0,1,2.4,1.1,7.11,7.11,0,0,1,.7,3.2V157H144V146.2a15.26,15.26,0,0,0-.3-3,5.23,5.23,0,0,0-1-2.3,4.26,4.26,0,0,0-2-1.5,7,7,0,0,0-3.2-.5,6.3,6.3,0,0,0-3,.7,5.65,5.65,0,0,0-2.4,2.2H132v-2.4l-4.5.1Zm25.1-2.7v-4h-4.8v4Zm-4.8,2.7v17.6h4.8V139.5Zm12.8,8.8a14.92,14.92,0,0,1,.2-2.1,4,4,0,0,1,.7-1.8,8,8,0,0,1,1.3-1.3,4.55,4.55,0,0,1,2-.5,5.37,5.37,0,0,1,2.1.5,4,4,0,0,1,1.3,1.3,4,4,0,0,1,.7,1.8,9.91,9.91,0,0,1,0,4.2,4,4,0,0,1-.7,1.8,4,4,0,0,1-1.3,1.3,5,5,0,0,1-2.1.5,4.55,4.55,0,0,1-2-.5,4,4,0,0,1-1.3-1.3,4,4,0,0,1-.7-1.8c-.1-.7-.1-1.4-.2-2.1Zm-4.8,0a12.09,12.09,0,0,0,.6,3.8,7.89,7.89,0,0,0,1.8,2.9,8.12,8.12,0,0,0,2.9,1.9,11.48,11.48,0,0,0,3.7.6,12.09,12.09,0,0,0,3.8-.6,7,7,0,0,0,2.9-1.9,7.89,7.89,0,0,0,1.8-2.9,12.33,12.33,0,0,0,0-7.6,7.89,7.89,0,0,0-1.8-2.9,9.72,9.72,0,0,0-2.9-1.9,9.86,9.86,0,0,0-3.8-.7,9.37,9.37,0,0,0-3.7.7,9.72,9.72,0,0,0-2.9,1.9,7.89,7.89,0,0,0-1.8,2.9,12.09,12.09,0,0,0-.6,3.8Zm21.3-8.8v17.6h4.8v-9.2a6.63,6.63,0,0,1,.9-3.9,3.25,3.25,0,0,1,2.9-1.2,2.54,2.54,0,0,1,2.4,1.1,7.11,7.11,0,0,1,.7,3.2V157h4.8V146.2a15.26,15.26,0,0,0-.3-3,5.23,5.23,0,0,0-1-2.3,4.26,4.26,0,0,0-2-1.5,7,7,0,0,0-3.2-.5,6.3,6.3,0,0,0-3,.7,5.65,5.65,0,0,0-2.4,2.2h-.1v-2.4l-4.5.1Z" style="fill:#fff"/></g></g></svg>
