<svg id="Layer_1" data-name="Layer 1" xmlns="http://www.w3.org/2000/svg" viewBox="0 0 1062.61 802.99"><title>logo_white</title><path d="M492.66,556.05c-14.84,15.48-30.94,24.33-51.84,14.68-6,7.48-12,15-18,22.45-1.47,1.8-3.34,3.27-4.85,5-10.42,12.23-22.91,13.34-36.79,6.89-4.06-1.88-8.09-3.87-12-6.05-9.47-5.31-13.86-13.84-15.23-24.31-4.9-37.43,3.18-72.91,16.49-107.48,9-23.39,20.35-45.58,38-63.81,4.92-5.08,10.84-9.27,16.62-13.43,4.86-3.51,10.55-3.85,16.16-1.94s11.12,4.25,16.69,6.42c11.58,4.58,15.41,13.72,16.08,25.51,2.59,45.6-5.85,89.1-24.05,130.83-1.6,3.67-.89,5.44,2.77,6.71,9.11,3.18,16.9.18,23.43-5.78,13.71-12.54,22.28-28.36,26.77-46.27,7.45-29.8,14.51-59.71,22.05-89.5,3.65-14.38,14.89-21.48,27.77-26.19,2.72-1,8.12-.69,9.07.92,1.4,2.36.63,6.69-.46,9.74-11.54,32.42-23.38,64.73-35,97.12-2,5.55-3.29,11.34-4.91,17l1.11.49c2.23-3.57,4.52-7.11,6.67-10.72,17.73-29.71,35.81-59.22,58-85.88a361.39,361.39,0,0,1,25.7-27.24c6-5.85,9.29-5.53,16.17-.68,10.49,7.39,12.84,15.88,9.1,28.06-9.26,30.16-18.1,60.45-27.08,90.7a7,7,0,0,0,.14,4.23q5.91-9.64,11.81-19.29c14.07-23,27.64-46.31,45.22-66.86a136.2,136.2,0,0,1,18.65-18c7.33-5.83,13.18-5.06,20,1.36a48,48,0,0,1,6.36,7.64c3.18,4.58,3.85,9.53,2.42,15.09-7.89,30.73-16,61.41-23.13,92.31-3.3,14.29-5,29-6.52,43.63-1,9.48,4.18,12.16,12.73,7.31,10.36-5.88,18.16-14.6,24.89-24.18,11.92-17,19.8-35.89,26.4-55.49,10-29.71,22.9-58.1,42.43-82.9a153.76,153.76,0,0,1,20.59-20.94c8.43-7.26,17.9-6.67,27.25-1,8.12,4.91,15.58,10.4,14.17,21.33a196.41,196.41,0,0,1-4.76,26.37c-6.21,23-18.14,42.82-32.84,61.46-9.08,11.52-20.12,13.45-33.18,11.64-2.61-.36-5.26-.47-8.57-.76-1.44,8.9-3.43,17.44-4.09,26.09-1.16,14.91-1.76,29.88-2.09,44.83-.28,12.91,3.12,15.74,15.21,11.43,32.46-11.57,58.36-31.37,74.71-62.37,4.3-8.17,8.39-16.44,12.51-24.54.45,0,.67-.07.78,0,12,8.64,10.57,4.85,4.82,17.42-11.52,25.17-26.15,48.23-46.63,67.14a233.31,233.31,0,0,1-19.12,15.23,32.53,32.53,0,0,1-27.35,5.87c-13.58-2.92-26.37-7.72-37.86-15.71-6.81-4.73-10.25-11.09-10.1-19.42.1-5.76,0-11.52,0-18.61-4,4.59-6.8,8.5-10.3,11.6-11.57,10.22-23,20.67-35.32,29.94-5,3.8-12,5.26-18.36,6.94-4.44,1.19-9.37.57-11.66-4.37-8.18-17.63-13.27-36.21-8.87-55.45,2.62-11.45,8.5-22.22,13.34-33.1,11.11-25,22.6-49.79,33.65-74.8,2.28-5.15,4.82-10.58,2.88-18.18-3.27,2.46-6.41,4-8.45,6.51-9,10.9-18.27,21.63-26.33,33.2C635.37,506.66,607,553.09,584.71,603c-5.74,12.88-8.93,13-18.28,2.64-9.83-10.86-10.62-22.38-5.18-35.42Q588,506.1,614.34,441.71c4.07-9.93,7.34-20.19,10.81-30.36.7-2.07.65-4.39.94-6.59l-1.38-.92c-2.3,1.91-5.11,3.44-6.81,5.79-14.13,19.51-28.74,38.72-41.9,58.88-28.24,43.24-55.75,87-78.39,133.53-1.09,2.23-2.17,4.67-3.91,6.32-1.45,1.37-4.38,2.85-5.7,2.23-1.5-.7-2.93-3.83-2.66-5.64,2.21-14.89,4.84-29.73,7.3-44.58A34.59,34.59,0,0,0,492.66,556.05ZM416.91,441.23l-1.23-.43c-2.59,5.09-5.43,10.07-7.73,15.29-9.25,21-15,43-19.08,65.53-3.87,21.19-5.51,42.55-2.91,64,.48,4,2.83,9.5,5.93,11,2.37,1.16,7.9-2.15,10.94-4.74,10.95-9.33,18.19-21.49,24.32-34.34a4.08,4.08,0,0,0,.16-3.18c-6.82-13.71-9.89-28.44-11.82-43.46a220.17,220.17,0,0,1-.81-52.26C415.33,452.82,416.17,447,416.91,441.23ZM435.29,535H437c2.63-7.44,5.48-14.8,7.86-22.32,7.37-23.23,12.29-47,13.71-71.34.57-9.83-.41-19.86-1.79-29.65-1-7.15-7.18-8.7-12.15-3.18a31.91,31.91,0,0,0-6.67,12c-9.15,30.66-12.25,61.94-7.88,93.73,1,7,3.43,13.83,5.2,20.76Zm344.52-39.07c13.32,2.32,24.71.46,32.08-11.82,5.54-9.23,11.5-18.29,16.2-28,6.8-14,11-28.79,9.88-44.63-.44-6.4-3.65-8.21-8.75-4.22a70.76,70.76,0,0,0-12.31,12.33c-16.85,21.79-27.32,46.86-36.41,72.59a26.32,26.32,0,0,0-.69,3.73Z" transform="translate(-0.01 0)" style="fill:#fff"/><path d="M151.82,460c-8.91,6.91-17.82,13.78-26.66,20.76-7.06,5.57-13.94,11.35-21,16.88C96.84,503.33,91.74,503,87.27,495c-6.34-11.4-11.5-23.46-17-35.33-1.7-3.69,0-6.49,3.59-8,16.78-7,33.39-14.54,50.44-20.85,12.37-4.58,25.28-7.74,38.05-11.13,3.59-1,5.54-2.28,6.8-5.94,23-66.67,47.93-132.59,75.86-197.36,4.79-11.1,9.9-22,14.9-33.07,1.55-3.44,3.6-6.16,8-4.74,4,1.3,6,5,4.85,9.61a63.91,63.91,0,0,1-3.71,9.73C239,265.67,216.56,336,197.35,407.51c-.38,1.4-.5,2.87-.85,5,7.95-1.16,15.37-2.76,22.86-3.23,18.73-1.18,37.49-2.11,56.25-2.45,3.31-.06,7.23,2.61,9.92,5.06,5.57,5.07,10.51,10.85,16.12,16.78,2.74-7.66,5.51-15.35,8.25-23.05C338.57,325,369.07,245,403.81,166.78c.54-1.21,1.07-2.43,1.66-3.61,2.76-5.48,4.75-6.44,9.16-4.43s5.76,5.21,3.72,10.14c-7.44,17.86-15.21,35.58-22.39,53.58-25.91,64.92-45.34,131.9-63.12,199.41-11.62,44.13-20.5,88.84-28,133.83-4.41,26.41-8.57,52.87-13.12,79.26-.65,3.79-2.51,7.49-4.39,10.92-1.49,2.73-4.26,3.24-6.76,1-10.88-9.58-21.85-19.16-29.29-31.81-4.84-8.21-2-17,.37-25.15,12.42-42.32,24.82-84.65,38.06-126.71,2.67-8.49,1.64-14-4.75-19.49-3.54-3-6.67-6.52-10-9.81-14.38-14.35-31-18.41-50.16-11-9.87,3.84-19.63,8-29.46,11.93a11.67,11.67,0,0,0-7.59,9c-5.84,25.78-12.33,51.41-17.75,77.27-6.09,29.3-11.52,58.67-16.9,88.08-4,22-7.42,44-11.34,66a34.09,34.09,0,0,1-4.1,11c-2,3.5-5.78,3.93-8.4.83-9.87-11.66-19.85-23.28-28.95-35.53-5.79-7.81-3.31-17.1-.78-25.49,9.72-32.29,19.61-64.53,29.91-96.64,6.88-21.4,14.56-42.54,21.88-63.81.53-1.53,1-3.09,1.48-4.64Z" transform="translate(-0.01 0)" style="fill:#fff"/><path d="M1026.51,334c-24.83-6.45-48.69-12.44-72.43-18.86C816.3,277.88,684.18,226,557,161.38c-70.07-35.61-137.76-75.44-203.86-118a91.5,91.5,0,0,0-21.85-10.57c-8.39-2.63-16.49.56-23.3,5.91-16.08,12.65-32.38,25.11-48,38.36q-58.81,49.67-112.45,105c-25.5,26.53-50.18,53.85-75.16,80.92-6.71,7.26-7.7,7.8-15.22,1.15-5.93-5.25-11.1-11.39-16.43-17.29-3-3.32-2.69-6.63.42-10.06,18.9-20.85,37.33-42.14,56.6-62.64A1634.65,1634.65,0,0,1,264.34,20.36c5.18-4.18,10.33-8.4,15.56-12.53,12-9.51,25-10.31,38-2.65,13.6,8,26.83,16.62,40.13,25.11C515.91,131.12,683.91,210.4,863.11,265.41c44.18,13.57,89,24.88,133.65,37,14.71,4,22.53,15,29.08,27.44C1026.25,330.67,1026.16,331.71,1026.51,334Z" transform="translate(-0.01 0)" style="fill:#fff"/><path d="M1062.48,685.81c-1.91.22-3.82.57-5.74.62-27.8.76-55.61,1.42-83.42,2.21-19,.53-37.94,1.06-56.89,1.89q-41.13,1.8-82.25,4.07c-19.57,1.09-39.14,2.44-58.69,3.92q-37,2.81-74,6.05-30.22,2.68-60.4,6c-25,2.76-50.05,5.79-75.05,8.85-26.63,3.27-53.26,6.46-79.83,10.17-25.73,3.59-51.39,7.67-77,11.76-28.73,4.59-57.49,9.06-86.12,14.25-37.07,6.72-74.11,13.71-111,21.33-38.51,8-76.78,17.11-115.3,25-8.15,1.67-17,1.09-25.41.14-18.25-2.07-36.44-4.83-54.58-7.78-5.73-.94-11.2-3.39-16.79-5.14l.16-1.86c4.8-1.21,9.57-2.57,14.41-3.6,43.93-9.37,87.79-19.22,131.86-27.9,39.41-7.78,79-14.58,118.63-21.3,31.83-5.41,63.77-10.2,95.7-15,25.4-3.82,50.84-7.48,76.31-10.79,23.36-3,46.79-5.57,70.2-8.21,23.74-2.69,47.49-5.38,71.27-7.79,16.18-1.64,32.42-2.81,48.63-4.2,18.7-1.6,37.39-3.29,56.1-4.77,11.27-.9,22.56-1.49,33.85-2.19,20.41-1.28,40.82-2.61,61.25-3.77,15.12-.85,30.25-1.79,45.39-2.12q81.43-1.77,162.89-3.1c23.9-.41,47.14,4.18,70.18,10a49.9,49.9,0,0,1,5.78,2.22Z" transform="translate(-0.01 0)" style="fill:#fff"/></svg>